<svg width="108" height="20" viewBox="0 0 108 20" fill="none" xmlns="http://www.w3.org/2000/svg">
<path d="M50.7412 19.6423V0.0013939H54.3711C54.8696 0.00136132 55.359 0.13521 55.7882 0.388961C56.2173 0.64271 56.5704 1.00705 56.8106 1.4439L63.9187 14.3652H64.0204V2.78476C64.0202 2.41902 64.0922 2.05686 64.2321 1.71895C64.3721 1.38104 64.5772 1.07401 64.8357 0.815394C65.0943 0.556783 65.4015 0.351664 65.7392 0.211755C66.0772 0.0718467 66.4393 -0.000109594 66.8051 1.25287e-07H68.1599V19.6409H62.8842L54.9824 5.25067H54.8822V19.6409H50.7412V19.6423Z" fill="#04BBF2"/>
<path d="M39.1411 11.5768H29.1981C29.4335 13.2936 29.918 14.3908 30.649 15.1483C31.38 15.9057 32.4633 16.2845 33.8933 16.2845H40.5586V19.6429H32.7571C30.0976 19.6429 28.0777 18.8015 26.6974 17.1185C25.3172 15.4355 24.627 13.0036 24.627 9.82242C24.627 6.64222 25.3172 4.21019 26.6974 2.52634C28.0777 0.842487 30.0976 0.00102559 32.7571 0.00195389H40.5586V0.574224C40.5587 0.939955 40.4867 1.30212 40.3468 1.64003C40.2069 1.97795 40.0018 2.28498 39.7432 2.54359C39.4846 2.8022 39.1775 3.00732 38.8397 3.14723C38.5018 3.28713 38.1396 3.35909 37.7738 3.35898H33.8933C33.4153 3.36082 32.9382 3.40322 32.4675 3.48569C31.9597 3.57533 31.4798 3.78278 31.0667 4.09137C30.5755 4.47887 30.182 4.97632 29.918 5.54363C29.5894 6.19109 29.3499 6.94019 29.1981 8.06802H39.1411C39.4366 8.06802 39.72 8.18538 39.9288 8.39428C40.1377 8.60318 40.255 8.8865 40.255 9.18192V10.4643C40.2546 10.7595 40.1371 11.0425 39.9283 11.2511C39.7194 11.4597 39.4363 11.5768 39.1411 11.5768Z" fill="white"/>
<path d="M85.4186 11.5749H75.4742C75.7095 13.2917 76.194 14.3889 76.9264 15.1463C77.6588 15.9038 78.7393 16.2825 80.1707 16.2825H86.836V19.6409H79.0345C76.375 19.6409 74.3557 18.7995 72.9762 17.1165C71.5968 15.4336 70.9067 13.0016 70.9058 9.82046C70.9058 6.64026 71.596 4.20823 72.9762 2.52438C74.3565 0.840534 76.376 -0.000927534 79.0345 7.6723e-07H86.836V0.572271C86.836 1.31084 86.5426 2.01914 86.0203 2.5414C85.4981 3.06364 84.7898 3.35703 84.0512 3.35703H80.1707C79.6927 3.35887 79.2156 3.40126 78.7449 3.48373C78.2371 3.57338 77.7573 3.78083 77.3441 4.08942C76.9055 4.40967 76.5226 4.89376 76.1954 5.54167C75.8668 6.18913 75.6273 6.93823 75.4756 8.06606H85.4199C85.7154 8.06606 85.9988 8.18343 86.2076 8.39233C86.4165 8.60123 86.5339 8.88455 86.5339 9.17997V10.4624C86.5329 10.7576 86.4149 11.0404 86.206 11.2489C85.997 11.4574 85.7137 11.5746 85.4186 11.5749Z" fill="white"/>
<path d="M43.6982 19.6409V1.39238C43.6982 1.0231 43.845 0.668941 44.1061 0.407818C44.3671 0.146696 44.7214 0 45.0906 0H46.4468C46.8161 0 47.1703 0.146696 47.4314 0.407818C47.6924 0.668941 47.8392 1.0231 47.8392 1.39238V19.6409H43.6982Z" fill="#04BBF2"/>
<path d="M95.4113 1.30605L98.8351 6.76558L102.258 1.30605C102.508 0.906423 102.856 0.576966 103.269 0.348537C103.682 0.12011 104.146 0.00018746 104.618 4.54167e-08H108L100.931 9.82046L108 19.6409H103.078L98.8365 12.8754L94.5953 19.6409H89.6719L96.7145 9.82046L89.6719 4.54167e-08H93.054C93.5254 -8.51684e-05 93.9891 0.119744 94.4015 0.34822C94.8139 0.576694 95.1613 0.906306 95.4113 1.30605Z" fill="white"/>
<path d="M21.316 11.6019C20.7012 10.7772 19.852 10.157 18.8793 9.82242C19.9222 9.3685 20.6922 8.71223 21.1893 7.85359C21.6982 6.9448 21.9554 5.91665 21.9342 4.87528C21.9509 4.1382 21.7814 3.40881 21.4413 2.75469C21.121 2.15883 20.6726 1.64144 20.1283 1.23978C19.5634 0.826863 18.9311 0.514993 18.2597 0.318023C17.568 0.108552 16.8492 0.00205533 16.1266 0.00195312H1.67921C1.23387 0.00199002 0.806777 0.178918 0.491871 0.493824C0.176965 0.808729 3.69228e-05 1.23582 0 1.68116V3.23367H14.84C15.7994 3.23367 16.5104 3.45273 16.9731 3.89087C17.4358 4.32901 17.667 4.9347 17.6665 5.70793C17.6665 6.48209 17.4354 7.09242 16.9731 7.53891C16.5091 7.98447 15.798 8.20725 14.84 8.20725H8.41834V11.439H14.84C15.7994 11.439 16.5104 11.658 16.9731 12.0962C17.4358 12.5343 17.667 13.14 17.6665 13.9132C17.6665 14.7041 17.4354 15.3186 16.9731 15.7567C16.5091 16.1953 15.798 16.4144 14.84 16.414H8.4253V19.6457H16.128C16.8876 19.6475 17.6454 19.5671 18.3878 19.4062C19.0848 19.2614 19.7458 18.9783 20.3316 18.5735C20.907 18.1642 21.3712 17.6175 21.6822 16.9834C22.0191 16.3179 22.1876 15.4806 22.1876 14.4716C22.1876 13.3577 21.897 12.4011 21.316 11.6019Z" fill="white"/>
<path fill-rule="evenodd" clip-rule="evenodd" d="M3.03818 4.16797H0V7.39969H3.03818V4.16797ZM4.01284 7.39969V4.16797H7.40886V7.39969H4.01284Z" fill="#04BBF2"/>
<path fill-rule="evenodd" clip-rule="evenodd" d="M3.03818 8.20703H0V11.4387H3.03818V8.20703ZM4.01284 11.4387V8.20703H7.40886V11.4387H4.01284Z" fill="#04BBF2"/>
<path fill-rule="evenodd" clip-rule="evenodd" d="M3.03818 12.3086H0V15.5403H3.03818V12.3086ZM4.01284 15.5403V12.3086H7.40886V15.5403H4.01284Z" fill="#04BBF2"/>
<path fill-rule="evenodd" clip-rule="evenodd" d="M3.03818 16.4121H0V19.6438H3.03818V16.4121ZM4.01284 19.6438V16.4121H7.40886V19.6438H4.01284Z" fill="white"/>
</svg>
