<svg width="23" height="20" viewBox="0 0 23 20" fill="none" xmlns="http://www.w3.org/2000/svg">
<path d="M21.316 11.6019C20.7012 10.7772 19.852 10.157 18.8793 9.82242C19.9222 9.3685 20.6922 8.71223 21.1893 7.85359C21.6982 6.9448 21.9554 5.91665 21.9342 4.87528C21.9509 4.1382 21.7814 3.40881 21.4413 2.75469C21.121 2.15883 20.6726 1.64144 20.1283 1.23978C19.5634 0.826863 18.9311 0.514993 18.2597 0.318023C17.568 0.108552 16.8492 0.00205533 16.1266 0.00195312H1.67921C1.23387 0.00199002 0.806777 0.178918 0.491871 0.493824C0.176965 0.808729 3.69228e-05 1.23582 0 1.68116V3.23367H14.84C15.7994 3.23367 16.5104 3.45273 16.9731 3.89087C17.4358 4.32901 17.667 4.9347 17.6665 5.70793C17.6665 6.48209 17.4354 7.09242 16.9731 7.53891C16.5091 7.98447 15.798 8.20725 14.84 8.20725H8.41834V11.439H14.84C15.7994 11.439 16.5104 11.658 16.9731 12.0962C17.4358 12.5343 17.667 13.14 17.6665 13.9132C17.6665 14.7041 17.4354 15.3186 16.9731 15.7567C16.5091 16.1953 15.798 16.4144 14.84 16.414H8.4253V19.6457H16.128C16.8876 19.6475 17.6454 19.5671 18.3878 19.4062C19.0848 19.2614 19.7458 18.9783 20.3316 18.5735C20.907 18.1642 21.3712 17.6175 21.6822 16.9834C22.0191 16.3179 22.1876 15.4806 22.1876 14.4716C22.1876 13.3577 21.897 12.4011 21.316 11.6019Z" fill="white"/>
</svg>
